<?xml version="1.0" encoding="UTF-8" standalone="no"?>
<svg
   xmlns:dc="http://purl.org/dc/elements/1.1/"
   xmlns:cc="http://creativecommons.org/ns#"
   xmlns:rdf="http://www.w3.org/1999/02/22-rdf-syntax-ns#"
   xmlns:svg="http://www.w3.org/2000/svg"
   xmlns="http://www.w3.org/2000/svg"
   xmlns:sodipodi="http://sodipodi.sourceforge.net/DTD/sodipodi-0.dtd"
   xmlns:inkscape="http://www.inkscape.org/namespaces/inkscape"
   version="1.1"
   x="0px"
   y="0px"
   viewBox="0 0 100 125"
   enable-background="new 0 0 100 100"
   xml:space="preserve"
   id="svg5409"
   sodipodi:docname="egads-wheat.svg"
   inkscape:version="0.92.1 r15371"><metadata
     id="metadata5415"><rdf:RDF><cc:Work
         rdf:about=""><dc:format>image/svg+xml</dc:format><dc:type
           rdf:resource="http://purl.org/dc/dcmitype/StillImage" /><dc:title></dc:title></cc:Work></rdf:RDF></metadata><defs
     id="defs5413" /><sodipodi:namedview
     pagecolor="#ffffff"
     bordercolor="#666666"
     borderopacity="1"
     objecttolerance="10"
     gridtolerance="10"
     guidetolerance="10"
     inkscape:pageopacity="0"
     inkscape:pageshadow="2"
     inkscape:window-width="1816"
     inkscape:window-height="1057"
     id="namedview5411"
     showgrid="false"
     inkscape:zoom="5.3400704"
     inkscape:cx="63.600495"
     inkscape:cy="76.161328"
     inkscape:window-x="96"
     inkscape:window-y="-8"
     inkscape:window-maximized="1"
     inkscape:current-layer="svg5409" /><rect
     style="fill:#512888;fill-opacity:1;fill-rule:nonzero;stroke-width:1.08016038"
     id="rect6106"
     width="100.935"
     height="100.935"
     x="-0.7490539"
     y="0.65706998"
     ry="17.686451"
     inkscape:export-xdpi="95.110718"
     inkscape:export-ydpi="95.110718" /><g
     id="g5975"
     inkscape:export-xdpi="104.80331"
     inkscape:export-ydpi="104.80331"
     transform="matrix(0.91411935,0,0,0.91411935,4.2718929,4.271474)"
     style="fill:#ffffff;fill-opacity:1"><path
       id="path5385"
       d="m 37.871,51.849 c 0.002,0 -1.535,-1.927 -2.348,-4.464 -0.972,-2.572 -1.168,-5.747 -0.491,-8.718 0.703,-2.962 2.287,-5.712 4.315,-7.583 1.862,-1.91 4.107,-2.942 4.104,-2.944 -0.002,0 1.546,1.927 2.362,4.463 0.981,2.575 1.17,5.754 0.479,8.72 -0.718,2.953 -2.311,5.706 -4.331,7.581 -1.859,1.906 -4.093,2.944 -4.09,2.945 z"
       inkscape:connector-curvature="0"
       style="fill:#ffffff;fill-opacity:1" /><path
       id="path5387"
       d="m 23.961,66.489 c 0.002,0 -1.75,-1.859 -2.854,-4.487 -1.265,-2.645 -1.833,-6.058 -1.503,-9.369 0.356,-3.31 1.612,-6.531 3.408,-8.854 1.63,-2.338 3.742,-3.791 3.74,-3.791 -0.002,0 1.763,1.859 2.868,4.486 1.274,2.65 1.83,6.059 1.488,9.369 -0.367,3.312 -1.633,6.525 -3.421,8.848 -1.628,2.344 -3.729,3.796 -3.726,3.798 z"
       inkscape:connector-curvature="0"
       style="fill:#ffffff;fill-opacity:1" /><path
       id="path5389"
       d="m 52.894,37.805 c 0.002,0 -1.272,-2.028 -1.762,-4.499 -0.64,-2.532 -0.448,-5.49 0.581,-8.114 1.054,-2.607 2.948,-4.887 5.167,-6.271 2.062,-1.453 4.396,-2.033 4.395,-2.034 -0.004,0 1.28,2.029 1.773,4.504 0.647,2.537 0.446,5.486 -0.595,8.107 -1.067,2.603 -2.968,4.875 -5.182,6.266 -2.057,1.454 -4.379,2.041 -4.377,2.041 z"
       inkscape:connector-curvature="0"
       style="fill:#ffffff;fill-opacity:1" /><path
       id="path5391"
       d="m 67.194,25.326 c 0,0 -0.95,-2.147 -1.066,-4.566 -0.262,-2.507 0.354,-5.253 1.73,-7.53 1.404,-2.267 3.576,-4.052 5.94,-4.938 C 76.013,7.313 78.37,7.2 78.37,7.2 c 0,0 0.959,2.153 1.082,4.577 0.267,2.508 -0.356,5.254 -1.746,7.52 -1.415,2.254 -3.597,4.04 -5.95,4.934 -2.216,0.976 -4.562,1.095 -4.562,1.095 z"
       inkscape:connector-curvature="0"
       style="fill:#ffffff;fill-opacity:1" /><path
       id="path5393"
       d="m 47.643,61.621 c -10e-4,-0.002 1.927,1.535 4.464,2.349 2.57,0.971 5.745,1.167 8.718,0.491 2.962,-0.703 5.712,-2.287 7.582,-4.316 1.91,-1.861 2.942,-4.108 2.944,-4.105 0,0.003 -1.927,-1.545 -4.465,-2.362 -2.574,-0.98 -5.753,-1.168 -8.718,-0.477 -2.954,0.717 -5.706,2.312 -7.581,4.329 -1.905,1.86 -2.943,4.094 -2.944,4.091 z"
       inkscape:connector-curvature="0"
       style="fill:#ffffff;fill-opacity:1" /><path
       id="path5395"
       d="m 33.004,75.531 c -10e-4,-0.003 1.858,1.749 4.485,2.854 2.645,1.265 6.058,1.833 9.369,1.502 3.31,-0.355 6.532,-1.611 8.855,-3.407 2.339,-1.628 3.79,-3.742 3.79,-3.74 10e-4,0.004 -1.858,-1.762 -4.484,-2.866 -2.65,-1.275 -6.059,-1.831 -9.37,-1.489 -3.311,0.367 -6.525,1.633 -8.848,3.421 -2.344,1.627 -3.797,3.726 -3.797,3.725 z"
       inkscape:connector-curvature="0"
       style="fill:#ffffff;fill-opacity:1" /><path
       id="path5397"
       d="m 61.687,46.598 c 0,-0.002 2.029,1.273 4.499,1.761 2.532,0.641 5.491,0.45 8.114,-0.58 2.607,-1.053 4.887,-2.947 6.271,-5.167 1.453,-2.063 2.034,-4.396 2.034,-4.394 10e-4,0.003 -2.03,-1.282 -4.503,-1.773 -2.538,-0.649 -5.488,-0.447 -8.109,0.594 -2.604,1.066 -4.875,2.968 -6.266,5.181 -1.455,2.057 -2.04,4.38 -2.04,4.378 z"
       inkscape:connector-curvature="0"
       style="fill:#ffffff;fill-opacity:1" /><path
       id="path5399"
       d="m 74.165,32.296 c 0,0 2.146,0.95 4.565,1.067 2.509,0.262 5.254,-0.352 7.532,-1.73 2.266,-1.405 4.051,-3.577 4.939,-5.939 0.976,-2.217 1.088,-4.573 1.088,-4.573 0,0 -2.151,-0.958 -4.577,-1.083 -2.507,-0.265 -5.253,0.358 -7.519,1.746 -2.255,1.416 -4.04,3.598 -4.934,5.951 -0.974,2.218 -1.094,4.561 -1.094,4.561 z"
       inkscape:connector-curvature="0"
       style="fill:#ffffff;fill-opacity:1" /><path
       id="path5401"
       d="M 6.18,95.528 C 5.609,95.527 5.035,95.309 4.598,94.874 3.724,94 3.723,92.585 4.598,91.712 L 68.659,27.695 c 0.871,-0.872 2.287,-0.871 3.161,0.003 0.875,0.871 0.875,2.286 0,3.159 L 7.761,94.874 C 7.323,95.31 6.752,95.528 6.18,95.528 Z"
       inkscape:connector-curvature="0"
       style="fill:#ffffff;fill-opacity:1" /><path
       id="path5403"
       d="m 82.387,17.112 c 0,0 -0.573,-2.164 -0.347,-4.333 0.106,-2.278 1.048,-4.527 2.628,-6.137 1.597,-1.587 3.835,-2.538 6.122,-2.646 2.173,-0.218 4.344,0.357 4.344,0.357 0,0 0.579,2.175 0.358,4.339 -0.103,2.287 -1.05,4.525 -2.642,6.129 -1.604,1.578 -3.85,2.521 -6.135,2.634 -2.161,0.228 -4.328,-0.343 -4.328,-0.343 z"
       inkscape:connector-curvature="0"
       style="fill:#ffffff;fill-opacity:1" /></g><text
     x="0"
     y="115"
     fill="#000000"
     font-size="5px"
     font-weight="bold"
     font-family="'Helvetica Neue', Helvetica, Arial-Unicode, Arial, Sans-serif"
     id="text5405">Created by Andrea Caldarelli</text>
<text
     x="0"
     y="120"
     fill="#000000"
     font-size="5px"
     font-weight="bold"
     font-family="'Helvetica Neue', Helvetica, Arial-Unicode, Arial, Sans-serif"
     id="text5407">from the Noun Project</text>
</svg>