<?xml version="1.0" encoding="UTF-8" standalone="no"?>
<svg
   xmlns:dc="http://purl.org/dc/elements/1.1/"
   xmlns:cc="http://creativecommons.org/ns#"
   xmlns:rdf="http://www.w3.org/1999/02/22-rdf-syntax-ns#"
   xmlns:svg="http://www.w3.org/2000/svg"
   xmlns="http://www.w3.org/2000/svg"
   xmlns:sodipodi="http://sodipodi.sourceforge.net/DTD/sodipodi-0.dtd"
   xmlns:inkscape="http://www.inkscape.org/namespaces/inkscape"
   version="1.1"
   x="0px"
   y="0px"
   viewBox="0 0 100 125"
   enable-background="new 0 0 100 100"
   xml:space="preserve"
   id="svg4785"
   sodipodi:docname="egads-icon.svg"
   inkscape:version="0.92.1 r15371"><metadata
     id="metadata4791"><rdf:RDF><cc:Work
         rdf:about=""><dc:format>image/svg+xml</dc:format><dc:type
           rdf:resource="http://purl.org/dc/dcmitype/StillImage" /><dc:title></dc:title></cc:Work></rdf:RDF></metadata><defs
     id="defs4789" /><sodipodi:namedview
     pagecolor="#ffffff"
     bordercolor="#666666"
     borderopacity="1"
     objecttolerance="10"
     gridtolerance="10"
     guidetolerance="10"
     inkscape:pageopacity="0"
     inkscape:pageshadow="2"
     inkscape:window-width="1816"
     inkscape:window-height="1057"
     id="namedview4787"
     showgrid="false"
     inkscape:zoom="5.3400704"
     inkscape:cx="32.25471"
     inkscape:cy="66.724796"
     inkscape:window-x="96"
     inkscape:window-y="-8"
     inkscape:window-maximized="1"
     inkscape:current-layer="svg4785"
     inkscape:pagecheckerboard="true" /><rect
     y="1.3217087"
     id="rect4669"
     height="99"
     width="185"
     x="-191.71635"
     style="fill:#ff9c9c;fill-opacity:1" /><rect
     x="-0.90418792"
     id="rect4671"
     height="30"
     width="100"
     y="-38.071865"
     style="fill:#ee4949;fill-opacity:1" /><text
     style="font-size:2.4000001px;font-family:Helvetica;fill:#000000"
     id="text4673"
     font-size="2.4"
     x="66"
     y="-19.5">http://thenounproject.com</text>
<text
     style="font-size:6.1578002px;font-family:Helvetica-Bold;fill:#000000"
     id="text4675"
     font-size="6.1578"
     x="7.1659999"
     y="-24.5">The Noun Project</text>
<text
     style="font-size:4px;font-family:Helvetica-Bold;fill:#000000"
     id="text4677"
     font-size="4"
     x="8.2861004"
     y="-19.700199">Icon Template</text>
<text
     style="font-size:6.1578002px;font-family:Helvetica-Bold;fill:#000000"
     id="text4679"
     font-size="6.1578"
     x="-178.5"
     y="10.5">Reminders</text>
<line
     style="fill:#000000;stroke:#ffffff;stroke-miterlimit:10"
     id="line4681"
     y2="-14.5"
     x2="18"
     y1="-14.5"
     x1="8"
     stroke-miterlimit="10" /><line
     style="fill:#000000;stroke:#ffffff;stroke-miterlimit:10"
     id="line4683"
     y2="16.5"
     x2="-162"
     y1="16.5"
     x1="-179"
     stroke-miterlimit="10" /><rect
     style="fill:#ee4949;stroke:#ffffff;stroke-miterlimit:10;fill-opacity:1"
     id="rect4759"
     height="30"
     width="30"
     stroke-miterlimit="10"
     y="22.5"
     x="-178.5" /><g
     id="g4695"><g
       id="g4693"><g
         id="g4691"><rect
           style="fill:#000000"
           id="rect4685"
           height="8.6420002"
           width="8.7209997"
           y="31.318001"
           x="-170.802" /><path
           style="fill:#000000"
           inkscape:connector-curvature="0"
           id="path4687"
           d="m -164.455,42.312 h 4.747 v -4.703 h -4.747 z m 5.189,0.437 h -5.63 V 37.17 h 5.63 z m -6.955,1.313 h 8.279 v -8.203 h -8.279 z m 8.721,0.438 h -9.163 v -9.079 h 9.163 z" /><polygon
           style="fill:#000000"
           id="polygon4689"
           points="-158.013,35.787 -157.871,35.929 -166.149,44.133 -166.292,43.991 " /></g></g></g><rect
     style="fill:none"
     id="rect4697"
     height="32.5"
     width="35"
     y="58"
     x="-179" /><text
     style="font-size:3px;font-family:Helvetica-Bold;fill:#000000"
     id="text4699"
     font-size="3"
     x="-179"
     y="60.1572">Strokes</text>
<text
     style="font-size:2.4000001px;font-family:Helvetica;fill:#000000"
     id="text4701"
     font-size="2.4"
     x="-179"
     y="65.157204">Try to keep strokes at 4px</text>
<text
     style="font-size:2.4000001px;font-family:Helvetica;fill:#000000"
     id="text4703"
     font-size="2.4"
     x="-179"
     y="70.157204">Minimum stroke weight is 2px</text>
<text
     style="font-size:2.4000001px;font-family:Helvetica;fill:#000000"
     id="text4705"
     font-size="2.4"
     x="-179"
     y="74.657204">For thicker strokes use even </text>
<text
     style="font-size:2.4000001px;font-family:Helvetica;fill:#000000"
     id="text4707"
     font-size="2.4"
     x="-179"
     y="77.657204">numbers: 6px, 8px etc.</text>
<text
     style="font-size:2.4000001px;font-family:Helvetica-Bold;fill:#000000"
     id="text4709"
     font-size="2.4"
     x="-179"
     y="82.157204">Remember to expand strokes </text>
<text
     style="font-size:2.4000001px;font-family:Helvetica-Bold;fill:#000000"
     id="text4711"
     font-size="2.4"
     x="-179"
     y="85.157204">before saving as an SVG </text>
<rect
     style="fill:none"
     id="rect4713"
     height="32.5"
     width="35"
     y="58"
     x="-136.5" /><text
     style="font-size:3px;font-family:Helvetica-Bold;fill:#000000"
     id="text4715"
     font-size="3"
     x="-136.5"
     y="60.1572">Size</text>
<text
     style="font-size:2.4000001px;font-family:Helvetica;fill:#000000"
     id="text4717"
     font-size="2.4"
     x="-136.5"
     y="65.157204">Cannot be wider or taller than </text>
<text
     style="font-size:2.4000001px;font-family:Helvetica;fill:#000000"
     id="text4719"
     font-size="2.4"
     x="-136.5"
     y="68.657204">100px (artboard size)</text>
<text
     style="font-size:2.4000001px;font-family:Helvetica;fill:#000000"
     id="text4721"
     font-size="2.4"
     x="-136.5"
     y="73.657204">Scale your icon to fill as much of </text>
<text
     style="font-size:2.4000001px;font-family:Helvetica;fill:#000000"
     id="text4723"
     font-size="2.4"
     x="-136.5"
     y="76.657204">the artboard as possible</text>
<rect
     style="fill:none"
     id="rect4725"
     height="32.5"
     width="35"
     y="58"
     x="-94" /><text
     style="font-size:3px;font-family:Helvetica-Bold;fill:#000000"
     id="text4727"
     font-size="3"
     x="-94"
     y="60.1572">Ungroup</text>
<text
     style="font-size:2.4000001px;font-family:Helvetica;fill:#000000"
     id="text4729"
     font-size="2.4"
     x="-94"
     y="65.157204">If your design has more than one </text>
<text
     style="font-size:2.4000001px;font-family:Helvetica;fill:#000000"
     id="text4731"
     font-size="2.4"
     x="-94"
     y="68.157204">shape, make sure to ungroup</text>
<rect
     style="fill:none"
     id="rect4733"
     height="32.5"
     width="35"
     y="58"
     x="-50" /><text
     style="font-size:3px;font-family:Helvetica-Bold;fill:#000000"
     id="text4735"
     font-size="3"
     x="-50"
     y="60.1572">Save as</text>
<text
     style="font-size:2.4000001px;font-family:Helvetica;fill:#000000"
     id="text4737"
     font-size="2.4"
     x="-50"
     y="65.157204">Save as .SVG and make sure </text>
<text
     style="font-size:2.4000001px;font-family:Helvetica;fill:#000000"
     id="text4739"
     font-size="2.4"
     x="-50"
     y="68.157204">“Use Artboards” is checked</text>
<rect
     style="fill:#ee4949;stroke:#ffffff;stroke-miterlimit:10;fill-opacity:1"
     id="rect4761"
     height="30"
     width="30"
     stroke-miterlimit="10"
     y="22.5"
     x="-136.5" /><text
     style="font-size:2.58260298px;font-family:Helvetica;fill:#000000;stroke-width:1.00369322"
     id="text4741"
     font-size="2.5731"
     transform="scale(1.0036932,0.99632041)"
     x="-125.08006"
     y="30.706789">100px</text>
<rect
     style="fill:#ee4949;stroke:#ffffff;stroke-miterlimit:10;fill-opacity:1"
     id="rect4763"
     height="30"
     width="30"
     stroke-miterlimit="10"
     y="22.5"
     x="-93.5" /><rect
     style="fill:#ee4949;stroke:#ffffff;stroke-miterlimit:10;fill-opacity:1"
     id="rect4765"
     height="30"
     width="30"
     stroke-miterlimit="10"
     y="22.5"
     x="-49.5" /><text
     style="font-size:5.16520596px;font-family:Helvetica-Bold;fill:#000000;stroke-width:1.00369322"
     id="text4743"
     font-size="5.1462"
     transform="scale(1.0036932,0.99632041)"
     x="-40.849136"
     y="39.144035">.SVG</text>
<rect
     style="fill:#000000"
     id="rect4745"
     height="10.185"
     width="10.261"
     y="34.814999"
     x="-126.514" /><rect
     style="fill:#000000"
     id="rect4747"
     height="2.3369999"
     width="0.52200001"
     y="31.766001"
     x="-126.477" /><rect
     style="fill:#000000"
     id="rect4749"
     height="2.3369999"
     width="0.523"
     y="31.766001"
     x="-116.813" /><rect
     style="fill:#000000"
     id="rect4751"
     height="0.57200003"
     width="11.233"
     y="32.337002"
     x="-127" /><g
     id="g4757"><rect
       style="fill:#000000"
       id="rect4753"
       height="10.156"
       width="10.305"
       y="33.844002"
       x="-83.805" /><rect
       style="fill:#000000"
       id="rect4755"
       height="3.2609999"
       width="3.3080001"
       y="28.707001"
       x="-76.808998" /></g><g
     style="fill:#ffffff;fill-opacity:1;stroke:none;stroke-opacity:1"
     inkscape:export-ydpi="100.01"
     inkscape:export-xdpi="100.01"
     id="g6078"
     transform="matrix(0.88518472,0,0,0.88518472,5.7462464,5.6058561)"><g
       style="fill:#ffffff;fill-opacity:1;stroke:none;stroke-opacity:1"
       id="g6076"><path
         d="M 87.999,92.65 H 12.097 C 7.646,92.65 1.5199609,94.008401 -0.27603907,90.895401 -2.0710391,87.787401 0.718,80.65 2.944,76.797 L 40.894,11.064 C 43.122,7.21 46.308409,3.8032757 49.899409,3.8032757 53.491409,3.8032757 56.977,7.211 59.202,11.065 L 97.15,76.799 c 2.227,3.854 5.31622,10.989401 3.52122,14.098401 C 98.87522,94.008401 92.45,92.65 87.999,92.65 Z"
         id="path6074"
         inkscape:connector-curvature="0"
         style="fill:#ffffff;fill-opacity:1;stroke:none;stroke-opacity:1"
         sodipodi:nodetypes="sscccscccs" /></g></g><g
     id="g4773"
     inkscape:export-xdpi="17.643465"
     inkscape:export-ydpi="17.643465"
     style="fill:#000000;fill-opacity:1;stroke:none;stroke-opacity:1"><g
       id="g4771"
       style="fill:#000000;fill-opacity:1;stroke:none;stroke-opacity:1"><path
         style="fill:#000000;fill-opacity:1;stroke:none;stroke-opacity:1"
         inkscape:connector-curvature="0"
         id="path4769"
         d="M 87.999,92.65 H 12.097 C 7.646,92.65 4.063,90.867 2.267,87.754 0.472,84.646 0.718,80.65 2.944,76.797 L 40.894,11.064 C 43.122,7.21 46.458,5 50.049,5 c 3.592,0 6.928,2.211 9.153,6.065 L 97.15,76.799 c 2.227,3.854 2.474,7.848 0.679,10.957 -1.796,3.111 -5.379,4.894 -9.83,4.894 z M 50.049059,10.859356 c -0.551792,0 -1.500748,0.679944 -2.377685,2.199756 L 7.4773787,82.676031 c -0.8779959,1.518753 -0.992379,2.680588 -0.7170124,3.158244 0.2753666,0.474477 1.3387055,0.956369 3.0936382,0.956369 H 90.241996 c 1.754932,0 2.817212,-0.481892 3.093638,-0.958488 0.275366,-0.475537 0.158865,-1.636313 -0.718072,-3.156125 L 52.424626,13.058053 C 51.548748,11.5393 50.598733,10.859356 50.049059,10.859356 Z"
         sodipodi:nodetypes="sscccscccsscccsscccs" /></g></g><path
     style="fill:#000000"
     inkscape:connector-curvature="0"
     id="path4775"
     d="m 125.313,57.395 c 0.21,2.179 0.563,3.781 1.081,4.9 0.65,1.408 1.856,2.152 3.49,2.152 1.599,0 2.813,-0.754 3.513,-2.18 0.569,-1.164 0.928,-2.744 1.092,-4.818 l 1.406,-16.12 c 0.155,-1.509 0.234,-3.025 0.234,-4.504 0,-2.643 -0.347,-4.642 -1.064,-6.113 -0.576,-1.181 -1.875,-2.587 -4.787,-2.587 -1.872,0 -3.413,0.633 -4.58,1.881 -1.149,1.229 -1.732,2.916 -1.732,5.02 0,1.356 0.1,3.593 0.297,6.655 z" /><path
     style="fill:#000000"
     inkscape:connector-curvature="0"
     id="path4777"
     d="m 130.016,67.895 c -1.683,0 -3.126,0.595 -4.292,1.758 -1.167,1.166 -1.758,2.601 -1.758,4.259 0,1.889 0.633,3.396 1.882,4.479 1.201,1.045 2.625,1.571 4.233,1.571 1.59,0 3.001,-0.535 4.194,-1.596 1.229,-1.095 1.854,-2.591 1.854,-4.455 0,-1.664 -0.604,-3.101 -1.8,-4.269 -1.186,-1.158 -2.638,-1.747 -4.313,-1.747 z" /><text
     x="3.7452691"
     y="149.83101"
     font-size="5px"
     font-weight="bold"
     id="text4781"
     style="font-weight:bold;font-size:5px;font-family:'Helvetica Neue', Helvetica, Arial-Unicode, Arial, Sans-serif;fill:#000000">Created by Alain LOUBET</text>
<text
     x="6.3669572"
     y="163.81964"
     font-size="5px"
     font-weight="bold"
     id="text4783"
     style="font-weight:bold;font-size:5px;font-family:'Helvetica Neue', Helvetica, Arial-Unicode, Arial, Sans-serif;fill:#000000">from the Noun Project</text>
<g
     transform="matrix(0.29366123,-0.30573311,0.30573311,0.29366123,140.14223,46.85055)"
     id="g5975"><path
       inkscape:connector-curvature="0"
       id="path5385"
       d="m 37.871,51.849 c 0.002,0 -1.535,-1.927 -2.348,-4.464 -0.972,-2.572 -1.168,-5.747 -0.491,-8.718 0.703,-2.962 2.287,-5.712 4.315,-7.583 1.862,-1.91 4.107,-2.942 4.104,-2.944 -0.002,0 1.546,1.927 2.362,4.463 0.981,2.575 1.17,5.754 0.479,8.72 -0.718,2.953 -2.311,5.706 -4.331,7.581 -1.859,1.906 -4.093,2.944 -4.09,2.945 z" /><path
       inkscape:connector-curvature="0"
       id="path5387"
       d="m 23.961,66.489 c 0.002,0 -1.75,-1.859 -2.854,-4.487 -1.265,-2.645 -1.833,-6.058 -1.503,-9.369 0.356,-3.31 1.612,-6.531 3.408,-8.854 1.63,-2.338 3.742,-3.791 3.74,-3.791 -0.002,0 1.763,1.859 2.868,4.486 1.274,2.65 1.83,6.059 1.488,9.369 -0.367,3.312 -1.633,6.525 -3.421,8.848 -1.628,2.344 -3.729,3.796 -3.726,3.798 z" /><path
       inkscape:connector-curvature="0"
       id="path5389"
       d="m 52.894,37.805 c 0.002,0 -1.272,-2.028 -1.762,-4.499 -0.64,-2.532 -0.448,-5.49 0.581,-8.114 1.054,-2.607 2.948,-4.887 5.167,-6.271 2.062,-1.453 4.396,-2.033 4.395,-2.034 -0.004,0 1.28,2.029 1.773,4.504 0.647,2.537 0.446,5.486 -0.595,8.107 -1.067,2.603 -2.968,4.875 -5.182,6.266 -2.057,1.454 -4.379,2.041 -4.377,2.041 z" /><path
       inkscape:connector-curvature="0"
       id="path5391"
       d="m 67.194,25.326 c 0,0 -0.95,-2.147 -1.066,-4.566 -0.262,-2.507 0.354,-5.253 1.73,-7.53 1.404,-2.267 3.576,-4.052 5.94,-4.938 C 76.013,7.313 78.37,7.2 78.37,7.2 c 0,0 0.959,2.153 1.082,4.577 0.267,2.508 -0.356,5.254 -1.746,7.52 -1.415,2.254 -3.597,4.04 -5.95,4.934 -2.216,0.976 -4.562,1.095 -4.562,1.095 z" /><path
       inkscape:connector-curvature="0"
       id="path5393"
       d="m 47.643,61.621 c -10e-4,-0.002 1.927,1.535 4.464,2.349 2.57,0.971 5.745,1.167 8.718,0.491 2.962,-0.703 5.712,-2.287 7.582,-4.316 1.91,-1.861 2.942,-4.108 2.944,-4.105 0,0.003 -1.927,-1.545 -4.465,-2.362 -2.574,-0.98 -5.753,-1.168 -8.718,-0.477 -2.954,0.717 -5.706,2.312 -7.581,4.329 -1.905,1.86 -2.943,4.094 -2.944,4.091 z" /><path
       inkscape:connector-curvature="0"
       id="path5395"
       d="m 33.004,75.531 c -10e-4,-0.003 1.858,1.749 4.485,2.854 2.645,1.265 6.058,1.833 9.369,1.502 3.31,-0.355 6.532,-1.611 8.855,-3.407 2.339,-1.628 3.79,-3.742 3.79,-3.74 10e-4,0.004 -1.858,-1.762 -4.484,-2.866 -2.65,-1.275 -6.059,-1.831 -9.37,-1.489 -3.311,0.367 -6.525,1.633 -8.848,3.421 -2.344,1.627 -3.797,3.726 -3.797,3.725 z" /><path
       inkscape:connector-curvature="0"
       id="path5397"
       d="m 61.687,46.598 c 0,-0.002 2.029,1.273 4.499,1.761 2.532,0.641 5.491,0.45 8.114,-0.58 2.607,-1.053 4.887,-2.947 6.271,-5.167 1.453,-2.063 2.034,-4.396 2.034,-4.394 10e-4,0.003 -2.03,-1.282 -4.503,-1.773 -2.538,-0.649 -5.488,-0.447 -8.109,0.594 -2.604,1.066 -4.875,2.968 -6.266,5.181 -1.455,2.057 -2.04,4.38 -2.04,4.378 z" /><path
       inkscape:connector-curvature="0"
       id="path5399"
       d="m 74.165,32.296 c 0,0 2.146,0.95 4.565,1.067 2.509,0.262 5.254,-0.352 7.532,-1.73 2.266,-1.405 4.051,-3.577 4.939,-5.939 0.976,-2.217 1.088,-4.573 1.088,-4.573 0,0 -2.151,-0.958 -4.577,-1.083 -2.507,-0.265 -5.253,0.358 -7.519,1.746 -2.255,1.416 -4.04,3.598 -4.934,5.951 -0.974,2.218 -1.094,4.561 -1.094,4.561 z" /><path
       inkscape:connector-curvature="0"
       id="path5401"
       d="M 6.18,95.528 C 5.609,95.527 5.035,95.309 4.598,94.874 3.724,94 3.723,92.585 4.598,91.712 L 68.659,27.695 c 0.871,-0.872 2.287,-0.871 3.161,0.003 0.875,0.871 0.875,2.286 0,3.159 L 7.761,94.874 C 7.323,95.31 6.752,95.528 6.18,95.528 Z" /><path
       inkscape:connector-curvature="0"
       id="path5403"
       d="m 82.387,17.112 c 0,0 -0.573,-2.164 -0.347,-4.333 0.106,-2.278 1.048,-4.527 2.628,-6.137 1.597,-1.587 3.835,-2.538 6.122,-2.646 2.173,-0.218 4.344,0.357 4.344,0.357 0,0 0.579,2.175 0.358,4.339 -0.103,2.287 -1.05,4.525 -2.642,6.129 -1.604,1.578 -3.85,2.521 -6.135,2.634 -2.161,0.228 -4.328,-0.343 -4.328,-0.343 z" /></g><path
     d="m 170.55739,74.142161 c -1.05617,0 -1.96173,0.373394 -2.69345,1.103238 -0.73236,0.731726 -1.10324,1.632264 -1.10324,2.672746 0,1.185447 0.39724,2.131169 1.18106,2.810808 0.75369,0.655793 1.64732,0.985886 2.65643,0.985886 0.9978,0 1.88328,-0.335741 2.63195,-1.001574 0.77126,-0.68717 1.16348,-1.625989 1.16348,-2.795747 0,-1.044248 -0.37904,-1.946041 -1.12959,-2.679022 -0.74428,-0.726706 -1.65548,-1.096335 -2.70664,-1.096335 z"
     id="path6022"
     inkscape:connector-curvature="0"
     style="fill:#000000;stroke-width:0.62755263" /><text
     style="font-weight:bold;font-size:5px;font-family:'Helvetica Neue', Helvetica, Arial-Unicode, Arial, Sans-serif;fill:#000000"
     x="1.0074309"
     y="180.46767"
     font-size="5px"
     font-weight="bold"
     id="text5405">Created by Andrea Caldarelli</text>
<text
     style="font-weight:bold;font-size:5px;font-family:'Helvetica Neue', Helvetica, Arial-Unicode, Arial, Sans-serif;fill:#000000"
     x="1.0074309"
     y="185.46767"
     font-size="5px"
     font-weight="bold"
     id="text5407">from the Noun Project</text>
<path
     inkscape:connector-curvature="0"
     id="path6046"
     d="m 42.993034,73.314503 c 10e-4,-0.0012 -1.96327,-0.461571 -3.720431,-1.651732 -1.883159,-1.13786 -3.520188,-3.023743 -4.45793,-5.205292 -0.912696,-2.186167 -1.128457,-4.673969 -0.618796,-6.817472 0.374732,-2.09185 1.429508,-3.821785 1.428318,-3.821791 -0.0025,0.0025 1.968656,0.457429 3.729984,1.648211 1.890316,1.13671 3.516625,3.022534 4.445395,5.209389 0.90254,2.191472 1.10937,4.678627 0.60685,6.823362 -0.37114,2.089487 -1.41459,3.816508 -1.41339,3.815325 z"
     style="fill:#000000;fill-opacity:1;stroke-width:0.8424738" /><path
     inkscape:connector-curvature="0"
     id="path6048"
     d="m 42.20531,55.368193 c 0,0 -1.84085,-0.723588 -3.343142,-2.104121 -1.64189,-1.346776 -2.899326,-3.356787 -3.423647,-5.535975 -0.501622,-2.189783 -0.257636,-4.545687 0.633865,-6.476719 0.747151,-1.898496 2.092317,-3.362273 2.092317,-3.362273 0,0 1.849787,0.721852 3.359237,2.101234 1.64548,1.344414 2.89872,3.358572 3.40814,5.539463 0.48733,2.188507 0.23795,4.550935 -0.64222,6.480244 -0.74953,1.897291 -2.08455,3.358147 -2.08455,3.358147 z"
     style="fill:#000000;fill-opacity:1;stroke-width:0.8424738" /><path
     inkscape:connector-curvature="0"
     id="path6054"
     d="m 57.735929,73.374263 c -10e-4,-0.0012 1.9696,-0.439137 3.73844,-1.60978 1.89661,-1.115705 3.55624,-2.982782 4.51762,-5.153496 0.93817,-2.175015 1.1823,-4.660193 0.69653,-6.809969 -0.35143,-2.096587 -1.38521,-3.838436 -1.38403,-3.837239 0.002,0.0012 -1.97553,0.434336 -3.74795,1.604959 -1.90494,1.114467 -3.55266,2.982803 -4.50633,5.158922 -0.92867,2.181027 -1.16266,4.665665 -0.68524,6.815395 0.34668,2.094177 1.37214,3.832406 1.37096,3.831208 z"
     style="fill:#000000;fill-opacity:1;stroke-width:0.8424738" /><path
     inkscape:connector-curvature="0"
     id="path6056"
     d="m 58.04179,55.414971 c 0,0 1.84838,-0.701948 3.36692,-2.064654 1.65835,-1.329139 2.93922,-3.322887 3.48778,-5.497742 0.52538,-2.183922 0.30828,-4.542458 -0.55874,-6.483522 -0.72843,-1.906315 -2.05681,-3.384152 -2.05681,-3.384152 0,0 -1.85612,0.700114 -3.38359,2.062173 -1.65892,1.326161 -2.93506,3.325891 -3.47051,5.499629 -0.51228,2.183997 -0.28925,4.548525 0.56884,6.487751 0.73022,1.905732 2.04612,3.380517 2.04611,3.380517 z"
     style="fill:#000000;fill-opacity:1;stroke-width:0.8424738" /><path
     inkscape:connector-curvature="0"
     id="path6058"
     d="m 50.162233,82.621884 c -1.613213,-0.0029 -3.195328,-2.392074 -3.195237,-2.904212 l -0.0965,-33.597531 c -0.0028,-0.510687 1.425851,-2.883029 3.190301,-2.875388 1.762429,0.0065 3.192302,2.391184 3.192204,2.903322 l 0.09853,33.596953 c -0.06999,0.429513 -1.576082,2.879803 -3.189293,2.876856 z"
     style="fill:#000000;fill-opacity:1;stroke-width:0.76908118"
     sodipodi:nodetypes="zcccccz" /><path
     inkscape:connector-curvature="0"
     id="path6060"
     d="m 50.14195,40.009933 c 0,0 -1.62505,-0.957075 -2.77438,-2.390399 -1.28578,-1.427551 -2.05353,-3.332903 -2.06056,-5.233316 0.0168,-1.896704 0.79429,-3.792049 2.10048,-5.211367 1.17274,-1.417697 2.81398,-2.359117 2.81398,-2.359117 0,0 1.63516,0.960109 2.78452,2.387479 1.29291,1.431165 2.05114,3.332885 2.04743,5.236814 -0.0263,1.895458 -0.81334,3.790747 -2.11538,5.211877 -1.15962,1.41658 -2.79609,2.358029 -2.79609,2.358029 z"
     style="fill:#000000;fill-opacity:1;stroke-width:0.8424738" /></svg>