<svg xmlns="http://www.w3.org/2000/svg" xmlns:xlink="http://www.w3.org/1999/xlink" version="1.1" x="0px" y="0px" viewBox="0 0 100 125" enable-background="new 0 0 100 100" xml:space="preserve"><path d="M37.871,51.849c0.002,0-1.535-1.927-2.348-4.464c-0.972-2.572-1.168-5.747-0.491-8.718c0.703-2.962,2.287-5.712,4.315-7.583  c1.862-1.91,4.107-2.942,4.104-2.944c-0.002,0,1.546,1.927,2.362,4.463c0.981,2.575,1.17,5.754,0.479,8.72  c-0.718,2.953-2.311,5.706-4.331,7.581C40.102,50.81,37.868,51.848,37.871,51.849z"/><path d="M23.961,66.489c0.002,0-1.75-1.859-2.854-4.487c-1.265-2.645-1.833-6.058-1.503-9.369c0.356-3.31,1.612-6.531,3.408-8.854  c1.63-2.338,3.742-3.791,3.74-3.791c-0.002,0,1.763,1.859,2.868,4.486c1.274,2.65,1.83,6.059,1.488,9.369  c-0.367,3.312-1.633,6.525-3.421,8.848C26.059,65.035,23.958,66.487,23.961,66.489z"/><path d="M52.894,37.805c0.002,0-1.272-2.028-1.762-4.499c-0.64-2.532-0.448-5.49,0.581-8.114c1.054-2.607,2.948-4.887,5.167-6.271  c2.062-1.453,4.396-2.033,4.395-2.034c-0.004,0,1.28,2.029,1.773,4.504c0.647,2.537,0.446,5.486-0.595,8.107  c-1.067,2.603-2.968,4.875-5.182,6.266C55.214,37.218,52.892,37.805,52.894,37.805z"/><path d="M67.194,25.326c0,0-0.95-2.147-1.066-4.566c-0.262-2.507,0.354-5.253,1.73-7.53c1.404-2.267,3.576-4.052,5.94-4.938  C76.013,7.313,78.37,7.2,78.37,7.2s0.959,2.153,1.082,4.577c0.267,2.508-0.356,5.254-1.746,7.52c-1.415,2.254-3.597,4.04-5.95,4.934  C69.54,25.207,67.194,25.326,67.194,25.326z"/><path d="M47.643,61.621c-0.001-0.002,1.927,1.535,4.464,2.349c2.57,0.971,5.745,1.167,8.718,0.491  c2.962-0.703,5.712-2.287,7.582-4.316c1.91-1.861,2.942-4.108,2.944-4.105c0,0.003-1.927-1.545-4.465-2.362  c-2.574-0.98-5.753-1.168-8.718-0.477c-2.954,0.717-5.706,2.312-7.581,4.329C48.682,59.39,47.644,61.624,47.643,61.621z"/><path d="M33.004,75.531c-0.001-0.003,1.858,1.749,4.485,2.854c2.645,1.265,6.058,1.833,9.369,1.502  c3.31-0.355,6.532-1.611,8.855-3.407c2.339-1.628,3.79-3.742,3.79-3.74c0.001,0.004-1.858-1.762-4.484-2.866  c-2.65-1.275-6.059-1.831-9.37-1.489c-3.311,0.367-6.525,1.633-8.848,3.421C34.457,73.433,33.004,75.532,33.004,75.531z"/><path d="M61.687,46.598c0-0.002,2.029,1.273,4.499,1.761c2.532,0.641,5.491,0.45,8.114-0.58c2.607-1.053,4.887-2.947,6.271-5.167  c1.453-2.063,2.034-4.396,2.034-4.394c0.001,0.003-2.03-1.282-4.503-1.773c-2.538-0.649-5.488-0.447-8.109,0.594  c-2.604,1.066-4.875,2.968-6.266,5.181C62.272,44.277,61.687,46.6,61.687,46.598z"/><path d="M74.165,32.296c0,0,2.146,0.95,4.565,1.067c2.509,0.262,5.254-0.352,7.532-1.73c2.266-1.405,4.051-3.577,4.939-5.939  c0.976-2.217,1.088-4.573,1.088-4.573s-2.151-0.958-4.577-1.083c-2.507-0.265-5.253,0.358-7.519,1.746  c-2.255,1.416-4.04,3.598-4.934,5.951C74.285,29.953,74.165,32.296,74.165,32.296z"/><path d="M6.18,95.528c-0.571-0.001-1.145-0.219-1.582-0.654c-0.874-0.874-0.875-2.289,0-3.162l64.061-64.017  c0.871-0.872,2.287-0.871,3.161,0.003c0.875,0.871,0.875,2.286,0,3.159L7.761,94.874C7.323,95.31,6.752,95.528,6.18,95.528z"/><path d="M82.387,17.112c0,0-0.573-2.164-0.347-4.333c0.106-2.278,1.048-4.527,2.628-6.137c1.597-1.587,3.835-2.538,6.122-2.646  c2.173-0.218,4.344,0.357,4.344,0.357s0.579,2.175,0.358,4.339c-0.103,2.287-1.05,4.525-2.642,6.129  c-1.604,1.578-3.85,2.521-6.135,2.634C84.554,17.683,82.387,17.112,82.387,17.112z"/><text x="0" y="115" fill="#000000" font-size="5px" font-weight="bold" font-family="'Helvetica Neue', Helvetica, Arial-Unicode, Arial, Sans-serif">Created by Andrea Caldarelli</text><text x="0" y="120" fill="#000000" font-size="5px" font-weight="bold" font-family="'Helvetica Neue', Helvetica, Arial-Unicode, Arial, Sans-serif">from the Noun Project</text></svg>